<svg width="300" height="400" viewBox="0 0 300 400" xmlns="http://www.w3.org/2000/svg">
  <defs>
    <filter id="glow">
      <feGaussianBlur stdDeviation="2" result="coloredBlur"/>
      <feMerge>
        <feMergeNode in="coloredBlur"/>
        <feMergeNode in="SourceGraphic"/>
      </feMerge>
    </filter>
  </defs>

  <!-- Scaled star -->
  <g transform="translate(150, 130) scale(0.35)">
    <path d="M181.611 22.7653C182.742 17.4983 190.258 17.4983 191.389 22.7653L218.79 150.371C219.203 152.294 220.706 153.797 222.629 154.21L350.235 181.611C355.502 182.742 355.502 190.258 350.235 191.389L222.629 218.79C220.706 219.203 219.203 220.706 218.79 222.629L191.389 350.235C190.258 355.502 182.742 355.502 181.611 350.235L154.21 222.629C153.797 220.706 152.294 219.203 150.371 218.79L22.7653 191.389C17.4983 190.258 17.4983 182.742 22.7653 181.611L150.371 154.21C152.294 153.797 153.797 152.294 154.21 150.371L181.611 22.7653Z" fill="#E0F2FE" filter="url(#glow)" opacity="0.95"/>
  </g>

  <!-- Text: CURSA -->
  <text
    x="150"
    y="310"
    font-family="'Inter', 'Helvetica Neue', Arial, sans-serif"
    font-size="32"
    font-weight="200"
    letter-spacing="8"
    fill="#E0F2FE"
    text-anchor="middle">
</svg>
